# xmcd
# Copyright (C) 1995-1998 Ti Kan
#
# Track frame offsets:
#       150
#       14142
#       35726
#       66401
#       86897
#       106620
#
# Disc length: 1634 seconds
#
# Revision: 0
# Processed by: cddbd v1.5.2PL0 Copyright (c) Steve Scherf et al.
# Submitted via: CD-Import v1.0
#
DISCID=50066006
DTITLE=On Y Danse - Dsdf
DYEAR=1900
DGENRE=
TTITLE0=Simian Mobile Disco - Cruel Intentions
TTITLE1=Sound Of Stereo - Heads Up
TTITLE2=Steed Lord - It's What U Do 2 Me (Mercury Rmx)
TTITLE3=Tom Deluxx - Reactivate - (Gooseflesh Rmx)
TTITLE4=Vitalic - Flashmob
TTITLE5=You Say Party! We Say Die! - Cosmic Wanship Avengers
EXTD=
EXTT0=
EXTT1=
EXTT2=
EXTT3=
EXTT4=
EXTT5=
PLAYORDER=
